<?xml version="1.0" encoding="utf-8"?>
<!-- Generator: Adobe Illustrator 17.1.0, SVG Export Plug-In . SVG Version: 6.00 Build 0)  -->
<!DOCTYPE svg PUBLIC "-//W3C//DTD SVG 1.1//EN" "http://www.w3.org/Graphics/SVG/1.1/DTD/svg11.dtd">
<svg version="1.1" id="Layer_1" xmlns="http://www.w3.org/2000/svg" xmlns:xlink="http://www.w3.org/1999/xlink" x="0px" y="0px"
	 viewBox="0 0 100 100" enable-background="new 0 0 100 100" xml:space="preserve">
<path fill="#444444" d="M18.9,72.4c0.4-0.1,0.8-0.6,1.1-0.9l6.7-8.9l0.1-0.2l5.6,18.1l0.4,0.3c0.1,0.1,6.5,4.8,15.7,5.1
	c0.3,0,0.6,0,0.9,0c0.3,0,0.5,0,0.8,0c4.7-0.1,10-1.5,15.4-5.1l0.5-0.3l5.8-18.8c0.1-0.2,0.2-0.4,0.2-0.7c0-0.1,0.1-0.2,0.1-0.3
	c0,0.3,0.1,0.6,0.3,0.9l7.3,9.5c0.3,0.4,0.7,1.2,1.1,1.2l1.2-0.4l15.1-12.8c0.7-0.5,0.8-1.8,0.3-2.5l-5.8-8
	c-0.2-0.3-0.6-0.5-0.9-0.6l-20.1-4.7C67.1,35.9,59.6,30.6,50.8,30c-0.3,0-0.6,0-0.8,0c-0.2,0-0.5,0-0.7,0c-0.3,0-0.6,0-0.9,0
	c-0.6,0-1.1,0.1-1.7,0.1c-8.5,0.9-15.6,6.3-19.1,13.7L8.9,48.2c-0.4,0.1-0.7,0.3-0.9,0.6l-5.8,8c-0.5,0.7-0.4,1.6,0.3,2.2L17.7,72
	L18.9,72.4z M18.4,67.9L5.7,57.5l4.5-6.3l15.9-3.7l3.7-0.9l1.7-0.4l-0.2,1l-2,0.8l-3.7,1.6l-5.9,2.5c-0.5,0.2-0.8,0.6-0.9,1.1
	c-0.1,0.5,0,1,0.3,1.4l4.8,6.1L18.4,67.9z M22.9,54.2l2.3-1c0,0.2,0,0.5,0,0.8c0,1.2,0.1,2.4,0.3,3.5L22.9,54.2z M63.3,78.4
	c-13.9,8.8-25.9,1.6-28.2,0L33,71.6l-3.4-11l-0.3-0.8c-0.5-1.8-0.8-3.8-0.8-5.8c0-0.7,0-1.4,0.1-2.2l4.8-2c0.5-0.2,0.8-0.6,0.9-1.1
	l1.1-4.3c0.1-0.5,0-1.1-0.4-1.5c-0.4-0.4-1-0.6-1.5-0.4l-1.7,0.4c3.7-5.8,10.1-9.6,17.5-9.6c7.2,0,13.5,3.7,17.2,9.2l-0.1,0
	c-0.5-0.1-1.1,0-1.5,0.4c-0.4,0.4-0.5,1-0.4,1.5l1.1,4.3c0.1,0.5,0.5,0.9,0.9,1.1l3.3,1.4C69.9,52.1,70,53,70,54
	c0,1.8-0.2,3.5-0.7,5.2l-0.1,0.2c-0.1,0.5-0.3,0.9-0.4,1.4l-3.4,10.9L63.3,78.4z M72.5,59.7l0.1-0.2l0,0c0.4-1.8,0.7-3.7,0.7-5.6
	c0-0.4,0-0.9,0-1.3l3.7,1.6L72.5,59.7C72.6,59.7,72.5,59.7,72.5,59.7z M81.4,67.9l-5.5-7.2l4.8-6.1c0.3-0.4,0.4-0.9,0.3-1.4
	c-0.1-0.5-0.5-0.9-0.9-1.1l-7.4-3.2l-3.8-1.6l-0.4-0.2l-0.2-1l0.2,0.1l3.7,0.9l17.3,4.1l4.5,6.3L81.4,67.9z"/>
<path fill="#444444" d="M57.7,27.3c0.2,0.1,0.5,0.2,0.8,0.2c0.6,0,1.1-0.3,1.4-0.8l7.3-13.1c0.4-0.8,0.2-1.8-0.6-2.2
	c-0.8-0.4-1.8-0.2-2.2,0.6l-7.3,13.1C56.6,25.9,56.9,26.8,57.7,27.3z"/>
<path fill="#444444" d="M38.7,26.6c0.3,0.5,0.8,0.8,1.4,0.8c0.3,0,0.5-0.1,0.8-0.2c0.8-0.4,1.1-1.4,0.6-2.2L34.2,12
	c-0.4-0.8-1.4-1.1-2.2-0.6c-0.8,0.4-1.1,1.4-0.6,2.2L38.7,26.6z"/>
<path fill="#444444" d="M43.5,58c-5.1,1.5-7.8-1.6-8-1.7c-0.4-0.4-1.1-0.5-1.5-0.1c-0.5,0.4-0.5,1.1-0.1,1.5
	c0.1,0.1,2.5,2.9,6.9,2.9c1,0,2.1-0.1,3.3-0.5c0.6-0.2,0.9-0.8,0.7-1.3C44.7,58.1,44.1,57.8,43.5,58z"/>
<path fill="#444444" d="M62.4,56.2c0,0-2.8,3.2-8,1.7c-0.6-0.2-1.2,0.2-1.3,0.7s0.2,1.2,0.7,1.3c1.2,0.4,2.3,0.5,3.3,0.5
	c4.4,0,6.8-2.8,6.9-2.9c0.4-0.5,0.3-1.1-0.1-1.5S62.8,55.8,62.4,56.2z"/>
<path fill="#444444" d="M49.1,25.4c0.3,0,0.6-0.1,0.8-0.2c0.5-0.3,0.8-0.8,0.8-1.4l0-15c0-0.9-0.7-1.6-1.6-1.6
	c-0.9,0-1.6,0.7-1.6,1.6l0,15C47.5,24.7,48.2,25.4,49.1,25.4z"/>
<path fill="#444444" d="M49.2,71.3c-0.6,0-1.1-0.5-1.1-1.1v-9.1c0-0.6,0.5-1.1,1.1-1.1c0.6,0,1.1,0.5,1.1,1.1v9.1
	C50.3,70.8,49.8,71.3,49.2,71.3z"/>
</svg>
